<?xml version="1.0" standalone="no"?>
<!DOCTYPE svg PUBLIC "-//W3C//DTD SVG 20010904//EN"
 "http://www.w3.org/TR/2001/REC-SVG-20010904/DTD/svg10.dtd">
<svg version="1.0" xmlns="http://www.w3.org/2000/svg"
 width="1024.000000pt" height="1024.000000pt" viewBox="0 0 1024.000000 1024.000000"
 preserveAspectRatio="xMidYMid meet">
<metadata>
Created by potrace 1.11, written by Peter Selinger 2001-2013
</metadata>
<g transform="translate(0.000000,1024.000000) scale(0.100000,-0.100000)"
fill="#000000" stroke="none">
<path d="M4800 9374 c-561 -48 -1052 -179 -1538 -410 -693 -329 -1308 -869
-1725 -1516 -344 -534 -559 -1126 -649 -1788 -20 -145 -23 -209 -23 -525 0
-377 7 -473 56 -755 164 -939 660 -1822 1379 -2454 577 -507 1257 -843 2004
-991 292 -57 432 -69 816 -69 309 0 377 3 521 22 690 91 1296 319 1859 697
956 643 1622 1667 1819 2795 49 282 56 378 56 755 -1 403 -12 527 -80 860
-232 1135 -916 2123 -1895 2736 -529 332 -1091 532 -1740 621 -114 15 -216 20
-480 23 -184 1 -355 1 -380 -1z m400 -1274 c116 -22 215 -85 275 -175 74 -112
69 -42 72 -1107 l4 -957 47 -33 c69 -47 168 -144 219 -215 l45 -63 1348 0
c860 0 1367 -4 1401 -10 132 -25 251 -119 312 -247 30 -63 32 -76 32 -173 0
-97 -2 -110 -32 -173 -61 -128 -180 -222 -312 -247 -34 -6 -541 -10 -1401 -10
l-1348 0 -45 -62 c-181 -254 -476 -388 -785 -357 -530 53 -884 582 -731 1094
54 179 184 356 341 463 l47 33 4 957 c3 1065 -2 995 72 1107 91 137 266 207
435 175z"/>
<path d="M5059 5539 c-68 -7 -171 -53 -224 -100 -145 -128 -181 -361 -80 -532
61 -104 186 -189 303 -205 132 -18 253 20 349 111 93 88 135 186 135 314 -1
260 -216 443 -483 412z"/>
<path d="M1 4738 c-1 -21 4 -38 9 -38 11 0 11 14 0 50 -7 22 -8 21 -9 -12z"/>
<path d="M10227 4741 c-4 -19 -5 -36 -2 -39 10 -11 16 7 13 40 l-3 33 -8 -34z"/>
</g>
</svg>
