<svg version="1" xmlns="http://www.w3.org/2000/svg" width="933.333" height="933.333" viewBox="0 0 700.000000 700.000000"><path d="M327.8.5c-.1.1-4.1.5-8.8.9-4.7.4-9.8.9-11.5 1.1-1.6.2-4.8.6-7 .9-2.2.3-4.9.7-6 1-1.1.2-4 .7-6.5 1-2.5.3-6 1-7.7 1.5-1.8.5-3.3.8-3.3.6 0-.3-1.1 0-2.6.5-1.4.6-3.8 1.2-5.5 1.5-4.5.8-12.3 2.9-23.9 6.5-30.3 9.3-68.8 28.1-93.2 45.5-3.1 2.2-6.6 4.7-7.8 5.5-4.4 2.9-18.6 14.4-26.5 21.4-35.7 31.5-68 75.4-86.5 117.6-2.3 5.2-4.6 10.4-5.1 11.5-4.7 10.2-14.9 42.9-17.5 56-.3 1.5-1.9 9.3-2.9 13.5 0 .3-.4 2.7-.9 5.5-.4 2.7-.9 6.3-1.2 7.9-.3 1.6-.7 5-.9 7.5-.3 2.5-.8 8.2-1.2 12.6-1.5 15.7-.8 59.4 1.2 70.6.2 1.3.7 4.4.9 6.9 1.3 11.4 3.2 21.5 7.2 37.5 2.6 10.4 8.1 28.8 9.4 31.5.4.8 2.9 7.1 5.5 13.9 5.5 14.3 16.7 36.7 24.5 49.4 3 4.8 6 9.5 6.5 10.5 7 12.3 29 39.4 46.1 56.6 15.8 15.9 41.9 37.1 57 46.3 24.6 15 34.1 20 53.1 28.2 12.7 5.4 28.1 11 36.1 13.2 1.7.5 4.9 1.4 7 1.9 2 .6 4.4 1.2 5.2 1.4.8.2 4.3 1.1 7.7 2 8.2 2.2 23.4 5 32.3 6.1 2.5.3 5.6.7 6.9 1 16.3 3.1 69.5 2.6 90.8-.9 2.1-.4 5.4-.9 7.3-1.1 1.9-.3 4.6-.7 6-1 1.4-.3 4.1-.8 6-1.1 1.9-.3 6.2-1.3 9.5-2.1s6.7-1.6 7.5-1.8c7.5-1.5 32.8-9.7 45.3-14.6 16.3-6.5 44.3-20.6 52.1-26.2.6-.4 6.3-4.1 12.6-8.3 24.5-16.3 49.2-37.9 67.3-58.9 3.3-3.9 6.3-7.2 6.7-7.5 3.2-2.5 23.5-31.2 31.5-44.4 17.9-29.8 34.6-71.7 41.1-103.1 1.6-7.5 5.4-30 6-35 .4-3.3.9-7.6 1.1-9.5.8-6.9 1-54.6.2-61-.4-3.6-1-9-1.3-12-.8-7.3-1.2-10.3-2.6-18-.6-3.6-1.3-7.9-1.6-9.5-2.6-14.8-11-43-18.6-61.9-20.6-51.9-58.4-104-99.8-137.6-3-2.5-5.7-4.8-6-5.1-1.7-1.8-18.7-14.1-28.8-20.7-34.8-22.7-77.7-40.5-117.7-48.7-4.4-.9-8.9-1.9-10-2.1-1.1-.2-3.8-.6-6-.9-2.2-.3-5.1-.7-6.5-1-1.3-.2-5.4-.7-9-1.1-3.6-.3-7.8-.8-9.5-1.1-3.3-.5-53.1-1.3-53.7-.8zM374 32.4c5.2.4 10.9.9 12.5 1.1 1.7.3 6.2 1 10 1.5 3.9.6 8.4 1.3 10 1.6 1.7.3 4.1.7 5.6.9 5.8.8 28.1 6.8 38.8 10.4 86.2 28.6 157.5 94.8 192.7 178.7 8.2 19.6 16.1 45.7 19.3 63.9.6 3.3 1.3 6.9 1.5 8 .2 1.2.7 4.8 1.1 8 .4 3.3.9 6.9 1.1 8 2.3 12 2.1 54.6-.2 72.5-1.3 10-2 14.8-2.9 19-.3 1.4-.8 4.1-1.1 6-1.4 8-6.8 28.3-10.6 39.5-9.4 28.1-21.2 51.6-41.2 81.5-1.5 2.4-3.2 4.8-3.7 5.4-.5.6-3 3.8-5.6 7.1-38.7 49.4-91 86.5-150.3 106.5-13.7 4.6-32.8 9.5-45.7 11.6-1.3.2-3.3.6-4.5.8-1.3.2-4.8.7-7.8 1-3 .4-6.4.9-7.5 1.1-8.5 1.7-39.9 2.4-57 1.2-9.8-.6-31.5-3.3-34.5-4.2-.8-.2-2.8-.7-4.5-.9-25.6-4.4-56.3-14.8-82-27.9-20.3-10.3-40.2-23.1-58-37.3-14-11.2-35.5-32.7-46.9-46.9-18.1-22.6-35.8-52.1-46.1-77-2.1-5-4.3-10.4-5-12-3.3-7.7-11.9-37.5-13.1-45.4-.3-1.8-.8-4.3-1-5.5-3.9-18.9-5.8-39.9-5.7-61.6 0-12.2.9-29 1.8-34 .2-1.4.6-4.8.9-7.5.5-4.7 2-13.4 3-18.1.2-1.2.7-3.7 1-5.5.7-4.6 4.2-17.6 7.4-27.9 1.4-4.7 2.7-8.7 2.7-9 .8-2.7 8.1-21.2 10.7-27C101.1 126.5 186.7 57.8 286 38c12.2-2.4 13.7-2.7 20.9-3.5 3-.4 6.2-.8 7.3-1 1-.2 6.7-.7 12.6-1.1 5.9-.3 10.8-.7 10.9-.8.5-.4 28.2.2 36.3.8z"/><path d="M331.2 67.5c-6.1 2.6-5.7-6.8-5.7 128.5v123.7l-3.9 4.3c-8.2 9.1-11.5 21.2-9.2 33.8l.8 4.3-88.6 88.6c-50.7 50.6-88.9 89.6-89.2 90.9-1.1 4.3.4 7 8.2 14.8 7.7 7.7 10.5 9.3 14.7 8.2 1.2-.3 42.1-40.4 90.7-89.1l88.5-88.6 4.5.7c13.8 2.1 23.9-.7 34-9.3l4.4-3.8h80.1c86.9 0 82 .3 85-5.4 1.5-3 1.8-33.8.4-38.1-2-5.7 1.6-5.4-85.6-5.5H380l-2.7-2.8-2.8-2.7V196.1c0-133.1.3-125.5-4.9-128.4-2.9-1.5-34.7-1.7-38.4-.2z"/></svg>