<?xml version="1.0" standalone="no"?>
<!DOCTYPE svg PUBLIC "-//W3C//DTD SVG 20010904//EN"
 "http://www.w3.org/TR/2001/REC-SVG-20010904/DTD/svg10.dtd">
<svg version="1.0" xmlns="http://www.w3.org/2000/svg"
 width="700.000000pt" height="700.000000pt" viewBox="0 0 700.000000 700.000000"
 preserveAspectRatio="xMidYMid meet">
<metadata>
Created by potrace 1.11, written by Peter Selinger 2001-2013
</metadata>
<g transform="translate(0.000000,700.000000) scale(0.100000,-0.100000)"
fill="#000000" stroke="none">
<path d="M1503 6779 c-61 -8 -133 -57 -163 -109 l-25 -45 0 -3125 0 -3125 25
-45 c18 -31 42 -55 80 -77 l54 -33 2022 0 c1599 0 2028 3 2050 13 54 23 85 50
112 96 l27 46 3 3080 c1 1694 0 3103 -4 3132 -11 101 -89 180 -189 190 -71 7
-3941 9 -3992 2z m3940 -218 l27 -1 0 -3060 0 -3060 -37 -1 c-50 0 -3840 0
-3875 0 l-28 1 0 3059 c0 2857 1 3060 17 3063 14 2 3806 2 3896 -1z"/>
<path d="M2038 6115 c-38 -15 -59 -41 -65 -80 -8 -50 13 -93 56 -113 34 -17
130 -18 1472 -17 1171 1 1442 4 1468 14 74 31 81 141 12 188 -24 17 -111 18
-1472 18 -970 0 -1454 -3 -1471 -10z"/>
<path d="M2033 5455 c-69 -30 -84 -119 -29 -174 l26 -26 1470 0 1470 0 26 26
c30 30 42 95 24 128 -6 12 -26 31 -43 41 -31 20 -63 20 -1472 20 -1202 -1
-1445 -3 -1472 -15z"/>
<path d="M2051 4807 c-39 -10 -81 -61 -81 -98 0 -39 24 -85 53 -101 17 -10
319 -13 1467 -14 1584 -2 1493 -5 1525 57 24 46 19 85 -18 125 l-33 36 -1442
2 c-793 0 -1455 -2 -1471 -7z"/>
<path d="M2031 4144 c-35 -15 -61 -60 -61 -105 0 -38 56 -99 92 -100 30 0
2765 0 2841 0 53 1 62 4 93 35 24 24 34 43 34 65 0 40 -24 87 -53 103 -32 19
-2902 21 -2946 2z"/>
<path d="M2034 3490 c-72 -29 -85 -131 -23 -182 l32 -27 1450 0 c1571 0 1483
-4 1521 53 26 40 21 91 -13 128 l-29 33 -1459 2 c-802 1 -1468 -2 -1479 -7z"/>
<path d="M2040 2833 c-19 -7 -36 -13 -37 -13 -1 0 -9 -13 -18 -30 -29 -56 -11
-122 42 -151 25 -14 182 -15 1478 -14 1357 1 1452 2 1476 18 70 47 62 157 -13
188 -46 19 -2873 21 -2928 2z"/>
<path d="M2042 2179 c-39 -12 -72 -60 -72 -107 0 -25 9 -43 34 -68 l34 -34
1460 0 1460 0 31 26 c61 51 48 150 -24 180 -29 12 -238 14 -1462 13 -867 0
-1441 -5 -1461 -10z"/>
<path d="M2004 1496 c-39 -39 -46 -89 -18 -132 37 -55 -45 -52 1508 -52 945 0
1448 3 1467 10 39 14 69 58 69 103 0 29 -8 45 -34 71 l-34 34 -1462 0 -1462 0
-34 -34z"/>
</g>
</svg>
